HIERARCHY
ROOT Hips
{
	OFFSET 0.000000 0.000000 0.000000
	CHANNELS 6 Xposition Yposition Zposition Zrotation Yrotation Xrotation 
	JOINT LHipJoint
	{
		OFFSET 0.000000 0.000000 0.000000
		CHANNELS 3 Zrotation Yrotation Xrotation
		JOINT LeftUpLeg
		{
			OFFSET 1.363060 -1.794630 0.839290
			CHANNELS 3 Zrotation Yrotation Xrotation
			JOINT LeftLeg
			{
				OFFSET 2.448110 -6.726130 0.000000
				CHANNELS 3 Zrotation Yrotation Xrotation
				JOINT LeftFoot
				{
					OFFSET 2.562200 -7.039590 0.000000
					CHANNELS 3 Zrotation Yrotation Xrotation
					JOINT LeftToeBase
					{
						OFFSET 0.157640 -0.433110 2.322550
						CHANNELS 3 Zrotation Yrotation Xrotation
						End Site
						{
							OFFSET 0.000000 0.000000 0.000000
						}
					}
				}
			}
		}
	}
	JOINT RHipJoint
	{
		OFFSET 0.000000 0.000000 0.000000
		CHANNELS 3 Zrotation Yrotation Xrotation
		JOINT RightUpLeg
		{
			OFFSET -1.305520 -1.794630 0.839290
			CHANNELS 3 Zrotation Yrotation Xrotation
			JOINT RightLeg
			{
				OFFSET -2.542530 -6.985550 0.000000
				CHANNELS 3 Zrotation Yrotation Xrotation
				JOINT RightFoot
				{
					OFFSET -2.568260 -7.056230 0.000000
					CHANNELS 3 Zrotation Yrotation Xrotation
					JOINT RightToeBase
					{
						OFFSET -0.164730 -0.452590 2.363150
						CHANNELS 3 Zrotation Yrotation Xrotation
						End Site
						{
							OFFSET 0.000000 0.000000 0.000000
						}
					}
				}
			}
		}
	}
}
MOTION
Frames: 30
Frame Time: 0.008333
12.502057 16.380166 0.816349 55.765661 -88.741972 -6.381761 -8.487074 0.571646 4.674148 -10.272961 -8.422550 -66.881010 -2.935287 0.244371 27.524713 3.362597 10.442110 -15.130715 -0.638000 -0.000000 -40.267099 8.666639 -0.031224 4.934540 8.023134 5.235489 -67.463249 3.631510 -1.301881 28.892846 -2.211199 -3.789722 -15.483721 0.179000 0.000000 -55.682599
12.497753 16.327752 0.819027 57.413762 -88.655322 -7.379830 -8.458542 0.581132 4.759661 -10.318211 -8.742091 -68.185153 -2.951256 0.372709 28.612346 3.405633 10.308065 -15.729549 -0.756300 0.000000 -40.059600 8.675945 -0.025736 5.059998 7.788531 5.447730 -68.975461 3.581397 -1.506953 30.282777 -2.266726 -3.754379 -16.104303 0.252700 0.000000 -55.520701
12.493879 16.270885 0.821135 59.273302 -88.542153 -8.584779 -8.428476 0.589397 4.842787 -10.376226 -9.089894 -69.547455 -2.962807 0.518832 29.825839 3.452593 10.170424 -16.386009 -0.887100 -0.000000 -39.868200 8.690445 -0.012923 5.177878 7.527268 5.627244 -70.562461 3.521526 -1.734800 31.812849 -2.321481 -3.701900 -16.779177 0.333800 -0.000000 -55.346600
12.490319 16.208992 0.822648 61.294624 -88.399866 -9.948192 -8.397298 0.596679 4.924365 -10.445020 -9.472104 -70.970741 -2.967209 0.684230 31.175917 3.504483 10.034980 -17.098439 -1.030200 0.000001 -39.695500 8.710432 0.009378 5.287345 7.236700 5.769371 -72.225469 3.450076 -1.985996 33.490670 -2.375385 -3.634380 -17.507096 0.421600 0.000000 -55.164000
12.487051 16.141549 0.823641 63.359985 -88.230208 -11.354285 -8.365959 0.603031 5.004755 -10.518623 -9.890076 -72.458099 -2.961131 0.870376 32.672018 3.561792 9.907096 -17.861863 -1.184700 0.000000 -39.543399 8.735461 0.043460 5.388435 6.915674 5.875361 -73.961055 3.364696 -2.259280 35.316923 -2.429467 -3.559542 -18.283005 0.515400 -0.000000 -54.980900
12.484157 16.068114 0.824459 65.236718 -88.046683 -12.574916 -8.336476 0.607152 5.081714 -10.583679 -10.331805 -74.014722 -2.940659 1.079524 34.326584 3.623727 9.787835 -18.671853 -1.349500 -0.000000 -39.408900 8.762928 0.090562 5.481727 6.571273 5.960229 -75.753423 3.263319 -2.549789 37.276686 -2.486753 -3.493592 -19.097924 0.614500 -0.000000 -54.804500
12.481240 15.987758 0.824812 67.074401 -87.831331 -13.754139 -8.306604 0.610468 5.162084 -10.642900 -10.824300 -75.639491 -2.902279 1.307994 36.130285 3.693301 9.696111 -19.511876 -1.522499 0.000000 -39.297700 8.797047 0.153701 5.569921 6.186156 6.006665 -77.624064 3.141503 -2.860841 39.393681 -2.546710 -3.438642 -19.948208 0.718600 -0.000000 -54.643800
12.478660 15.900202 0.825290 68.555598 -87.612307 -14.582053 -8.279642 0.608376 5.238617 -10.673680 -11.335425 -77.337379 -2.841877 1.558241 38.097184 3.767557 9.625994 -20.379093 -1.703100 -0.000000 -39.196000 8.832197 0.232116 5.653231 5.778386 6.046424 -79.539486 2.998248 -3.182760 41.631535 -2.614497 -3.419204 -20.822686 0.828800 -0.000000 -54.498600
12.476259 15.804735 0.825955 69.708172 -87.389140 -15.085385 -8.255224 0.599033 5.312735 -10.669414 -11.868500 -79.106567 -2.756394 1.827035 40.219340 3.847004 9.586741 -21.261696 -1.890400 -0.000001 -39.099001 8.868613 0.326269 5.733573 5.344765 6.081161 -81.499012 2.830885 -3.513248 43.988359 -2.691807 -3.445891 -21.715640 0.946200 -0.000000 -54.370000
12.474292 15.701138 0.827182 70.421762 -87.178234 -15.160107 -8.234973 0.577584 5.380199 -10.614460 -12.402568 -80.944635 -2.643095 2.112946 42.495598 3.929708 9.577798 -22.153917 -2.083599 -0.000000 -38.997000 8.902687 0.434294 5.810765 4.898335 6.129701 -83.481052 2.639081 -3.845963 46.442102 -2.781497 -3.533099 -22.620775 1.073800 -0.000000 -54.251300
12.472537 15.588861 0.828743 70.873118 -86.964596 -14.981730 -8.216293 0.544389 5.446165 -10.513395 -12.957520 -82.841947 -2.501042 2.409224 44.901504 4.017870 9.613898 -23.043476 -2.283200 -0.000000 -38.886200 8.937083 0.558051 5.887155 4.424154 6.176209 -85.496246 2.420522 -4.181026 48.999536 -2.882717 -3.681579 -23.535862 1.213099 -0.000000 -54.140199
12.471275 15.467953 0.831155 70.909447 -86.774815 -14.404659 -8.201736 0.493066 5.501568 -10.350073 -13.495058 -84.790750 -2.329791 2.715098 47.436349 4.107855 9.685272 -23.934828 -2.489900 0.000000 -38.749501 8.966032 0.693906 5.959032 3.948084 6.247738 -87.508014 2.178154 -4.510464 51.626971 -2.997540 -3.900712 -24.458864 1.368199 0.000000 -54.018600
12.470601 15.338512 0.834389 70.600695 -86.607389 -13.504716 -8.189953 0.422463 5.546054 -10.126290 -14.013288 -86.777402 -2.130520 3.025881 50.079699 4.199738 9.795455 -24.826460 -2.705400 0.000001 -38.581500 8.989337 0.841837 6.024881 3.471859 6.340026 -89.508042 1.913347 -4.832526 54.315744 -3.124273 -4.186283 -25.389960 1.541300 -0.000000 -53.877600
12.470450 15.200761 0.838475 69.980007 -86.465482 -12.318718 -8.180305 0.331689 5.577344 -9.845021 -14.503100 -88.785519 -1.905537 3.337915 52.812623 4.292832 9.943018 -25.721784 -2.931500 0.000001 -38.376200 9.006159 1.001079 6.081941 3.003334 6.452814 -91.481626 1.628893 -5.145077 57.051893 -3.260841 -4.531642 -26.330522 1.734501 -0.000000 -53.706800
12.470921 15.055268 0.843415 69.082124 -86.350740 -10.888138 -8.171899 0.220786 5.593012 -9.512617 -14.956160 -90.796661 -1.657960 3.648210 55.615002 4.386586 10.125658 -26.626139 -3.170500 0.000000 -38.133000 9.015978 1.171122 6.126780 2.550560 6.583467 -93.413382 1.328229 -5.446839 59.820462 -3.404002 -4.925510 -27.281215 1.948600 -0.000001 -53.501100
12.472030 14.902701 0.849118 67.954606 -86.263198 -9.265864 -8.163890 0.090647 5.589886 -9.140068 -15.365784 -92.790416 -1.391464 3.954655 58.467542 4.480198 10.339210 -27.545402 -3.424500 -0.000000 -37.855201 9.018756 1.351764 6.154729 2.122348 6.726064 -95.287997 1.015327 -5.737762 62.607713 -3.549691 -5.352501 -28.244012 2.183200 0.000000 -53.258000
12.473385 14.743845 0.855363 66.689323 -86.196477 -7.543139 -8.155289 -0.054883 5.571394 -8.740314 -15.737999 -94.754357 -1.109915 4.254867 61.345560 4.574501 10.583156 -28.482652 -3.695400 0.000000 -37.557400 9.016145 1.542021 6.168479 1.714086 6.873278 -97.107251 0.691633 -6.018313 65.403496 -3.694691 -5.801920 -29.213372 2.436800 0.000001 -52.997600
12.475002 14.579663 0.862075 65.327917 -86.150215 -5.766435 -8.145915 -0.214410 5.532738 -8.328117 -16.066068 -96.665657 -0.816873 4.548472 64.232730 4.668065 10.850809 -29.441505 -3.984000 0.000000 -37.253800 9.008406 1.741350 6.161490 1.338362 7.016551 -98.852048 0.361795 -6.289650 68.191663 -3.834124 -6.253785 -30.189711 2.706000 0.000000 -52.727200
12.476738 14.411258 0.868955 63.966794 -86.117368 -4.033568 -8.135070 -0.384549 5.474594 -7.919944 -16.356648 -98.509875 -0.515459 4.834723 67.109639 4.760838 11.139590 -30.420240 -4.290699 -0.000000 -36.966900 8.997317 1.948626 6.133857 0.994157 7.145352 -100.520581 0.027581 -6.553467 70.961023 -3.964330 -6.693951 -31.166522 2.986200 0.000000 -52.472000
12.477978 14.239569 0.875850 62.675037 -86.092805 -2.407797 -8.122976 -0.561485 5.400955 -7.526349 -16.616852 -100.280715 -0.208090 5.113040 69.957142 4.852764 11.446431 -31.413020 -4.614300 0.000000 -36.723700 8.984683 2.161170 6.089935 0.677323 7.255176 -102.116575 -0.310582 -6.810371 73.699216 -4.083729 -7.116211 -32.133019 3.272900 -0.000000 -52.269000
12.478542 14.065732 0.882570 61.524347 -86.071011 -0.960611 -8.109308 -0.742552 5.312750 -7.159365 -16.853159 -101.969011 0.103533 5.383293 72.760592 4.943168 11.768006 -32.410741 -4.952400 -0.000000 -36.546899 8.972262 2.376861 6.030486 0.388422 7.337482 -103.638591 -0.651386 -7.061867 76.393978 -4.189959 -7.509940 -33.080517 3.560200 -0.000000 -52.143700
12.478010 13.890772 0.888952 60.571056 -86.047156 0.257069 -8.094009 -0.924930 5.213612 -6.825355 -17.073612 -103.572207 0.418268 5.644965 75.505406 5.031736 12.101859 -33.401958 -5.302100 -0.000000 -36.457800 8.961850 2.593040 5.959820 0.122640 7.388457 -105.090727 -0.995115 -7.308278 79.034265 -4.282866 -7.873654 -33.997746 3.843700 -0.000000 -52.127600
12.476195 13.715635 0.894839 59.857724 -86.017070 1.206232 -8.076704 -1.106846 5.104783 -6.530139 -17.284640 -105.087916 0.735423 5.897801 78.181094 5.117590 12.444852 -34.373342 -5.659300 0.000000 -36.470200 8.954867 2.807536 5.879437 -0.120837 7.403158 -106.474661 -1.341116 -7.550460 81.609488 -4.361925 -8.202565 -34.877349 4.118400 0.000000 -52.235501
12.472547 13.541303 0.900196 59.397562 -85.977594 1.879316 -8.057549 -1.285384 4.992823 -6.272094 -17.494169 -106.520155 1.054623 6.140777 80.775464 5.200834 12.796173 -35.311767 -6.020100 -0.000000 -36.590200 8.952632 3.017542 5.796797 -0.349772 7.383450 -107.797345 -1.690429 -7.787208 84.110207 -4.429309 -8.503891 -35.709641 4.382400 0.000000 -52.485700
12.467032 13.368649 0.905017 59.165702 -85.929960 2.304020 -8.036940 -1.459717 4.879220 -6.048223 -17.701886 -107.870898 1.375568 6.373711 83.281988 5.280367 13.151649 -36.206218 -6.380100 0.000000 -36.813800 8.954984 3.221269 5.713150 -0.562662 7.332771 -109.057409 -2.042070 -8.017813 86.526833 -4.486402 -8.779514 -36.492036 4.634300 -0.000000 -52.870001
12.459426 13.198557 0.909331 59.132207 -85.874554 2.512513 -8.015211 -1.628322 4.768013 -5.853180 -17.910337 -109.144771 1.697883 6.595899 85.693906 5.356197 13.509824 -37.049446 -6.736000 0.000000 -37.128001 8.961776 3.417214 5.632538 -0.762935 7.256119 -110.257345 -2.395639 -8.240892 88.852356 -4.535670 -9.035891 -37.223975 4.874700 0.000000 -53.375600
12.449659 13.031839 0.913220 59.237881 -85.814176 2.565256 -7.993232 -1.790319 4.661997 -5.679906 -18.117347 -110.344341 2.020806 6.806805 88.005890 5.427959 13.867255 -37.838042 -7.085000 -0.000000 -37.512200 8.972092 3.604250 5.556950 -0.950008 7.161184 -111.394169 -2.749751 -8.454735 91.080221 -4.579641 -9.279092 -37.909093 5.105800 0.000000 -53.976100
12.437618 12.869280 0.916776 59.440482 -85.750481 2.504681 -7.971631 -1.945013 4.563435 -5.523860 -18.322160 -111.469963 2.343101 7.005836 90.213949 5.495936 14.221802 -38.573980 -7.425900 0.000000 -37.937700 8.985306 3.781582 5.488204 -1.125005 7.053573 -112.464620 -3.102675 -8.657889 93.205800 -4.620643 -9.513920 -38.554817 5.330000 -0.000000 -54.637400
12.423393 12.711735 0.920138 59.658845 -85.688573 2.410028 -7.951560 -2.092249 4.473386 -5.378082 -18.518676 -112.520706 2.663340 7.192630 92.315301 5.560295 14.570592 -39.263083 -7.758501 -0.000000 -38.375600 8.999860 3.948946 5.425863 -1.283996 6.942711 -113.461121 -3.451805 -8.848853 95.224845 -4.660869 -9.744532 -39.170351 5.550799 0.000000 -55.320200
12.407133 12.560037 0.923538 59.809227 -85.635221 2.361481 -7.934321 -2.232470 4.392043 -5.236323 -18.698423 -113.494841 2.979883 7.367218 94.309048 5.621183 14.910051 -39.914671 -8.082900 -0.000000 -38.798000 9.013941 4.105991 5.368519 -1.421111 6.839713 -114.374226 -3.794025 -9.026277 97.134051 -4.702106 -9.973261 -39.766349 5.771400 -0.000000 -55.984700
